<svg width="69" height="68" viewBox="0 0 69 68" fill="none" xmlns="http://www.w3.org/2000/svg">
<g clip-path="url(#clip0_1_33)">
<path d="M23.4168 52.0494C23.3995 51.9644 23.3743 51.8808 23.3411 51.7997C23.3079 51.7201 23.2667 51.643 23.2189 51.5713C23.1711 51.4983 23.1153 51.4305 23.0542 51.3694C22.9931 51.3083 22.9254 51.2526 22.8523 51.2047C22.7806 51.1569 22.7036 51.1158 22.6226 51.0826C22.5429 51.0494 22.4592 51.0228 22.3742 51.0069C22.2029 50.9723 22.0263 50.9723 21.8563 51.0069C21.7713 51.0228 21.6876 51.0494 21.6066 51.0826C21.5269 51.1158 21.4498 51.1569 21.3781 51.2047C21.3051 51.2526 21.2373 51.3083 21.1762 51.3694C21.1152 51.4305 21.0594 51.4983 21.0116 51.5713C20.9624 51.643 20.9226 51.7201 20.8894 51.7997C20.8562 51.8808 20.8296 51.9644 20.8137 52.0494C20.7964 52.1344 20.7871 52.2221 20.7871 52.3084C20.7871 52.3947 20.7964 52.4824 20.8137 52.5674C20.8296 52.6524 20.8562 52.7361 20.8894 52.8158C20.9226 52.8968 20.9624 52.9738 21.0116 53.0455C21.0594 53.1186 21.1152 53.1863 21.1762 53.2474C21.2373 53.3085 21.3051 53.3643 21.3781 53.4121C21.4498 53.46 21.5269 53.5012 21.6066 53.5344C21.6876 53.5676 21.7713 53.5942 21.8563 53.6101C21.9413 53.6274 22.0289 53.6367 22.1152 53.6367C22.2016 53.6367 22.2892 53.6274 22.3742 53.6101C22.4592 53.5942 22.5429 53.5676 22.6226 53.5344C22.7036 53.5012 22.7806 53.4599 22.8523 53.4121C22.9254 53.3643 22.9931 53.3085 23.0542 53.2474C23.1153 53.1863 23.1711 53.1186 23.2189 53.0455C23.2667 52.9738 23.3079 52.8968 23.3411 52.8158C23.3743 52.7361 23.3995 52.6524 23.4168 52.5674C23.4341 52.4824 23.4434 52.3947 23.4434 52.3084C23.4434 52.2221 23.4341 52.1344 23.4168 52.0494Z" fill="#70908B"/>
<path d="M61.5928 52.4586C61.5876 52.4454 61.5823 52.4322 61.5768 52.4192C60.3543 49.5588 57.4875 48.5016 54.0946 49.6604L44.8418 52.2192C44.3069 50.5991 42.9725 49.2205 41.0858 48.5204C41.0741 48.5161 41.0624 48.5119 41.0506 48.5079L30.8797 45.0558C30.0331 43.9616 27.3814 41.1616 22.4165 41.1616C18.9467 41.1616 15.8773 43.5419 14.1213 46.1364H1.82812C1.0946 46.1364 0.5 46.731 0.5 47.4645V64.2091C0.5 64.9426 1.0946 65.5372 1.82812 65.5372H9.72476C10.4583 65.5372 11.0529 64.9426 11.0529 64.2091V63.0624H14.7561C15.4896 63.0624 16.0842 62.4678 16.0842 61.7343V61.352C18.243 61.5404 18.953 61.9498 20.9356 63.0931C22.4603 63.9723 24.7647 65.3011 28.9146 67.167C28.9338 67.1756 28.9534 67.1838 28.9729 67.1915C29.7694 67.5048 31.3263 67.997 33.2459 67.997C34.5819 67.997 36.094 67.7584 37.6461 67.0549L58.098 59.7321C58.1344 59.7191 58.1702 59.7045 58.2053 59.6883C60.1599 58.789 63.0726 56.2546 61.5928 52.4586ZM8.39663 62.8808H3.15625V48.7925H8.39663V62.8808ZM13.428 60.406H11.0529V48.7925H13.428V60.406ZM57.144 57.2521L36.7012 64.5715C36.6833 64.5779 36.659 64.5875 36.6413 64.5946C36.6234 64.6019 36.6055 64.6097 36.5878 64.6178C33.7407 65.9262 31.0344 65.1429 29.9737 64.7305C25.9652 62.9268 23.8257 61.6931 22.2625 60.7917C20.0892 59.5385 19.042 58.9344 16.0842 58.6902V47.9932C17.3431 45.9299 19.7845 43.8177 22.4166 43.8177C26.9304 43.8177 28.843 46.7536 28.9182 46.872C29.0803 47.1358 29.3296 47.3346 29.6227 47.4341L40.178 51.0166C41.8638 51.6493 42.7547 53.093 42.3452 54.5326C42.1562 55.1975 41.7196 55.7489 41.1158 56.0854C40.5172 56.4188 39.8253 56.5013 39.1657 56.3188L27.2666 52.548C26.567 52.3264 25.8208 52.7136 25.5993 53.4129C25.3776 54.1122 25.7649 54.8586 26.4642 55.0802L38.384 58.8575C38.3966 58.8615 38.4092 58.8654 38.422 58.869C38.8978 59.0043 39.3823 59.0712 39.8639 59.0712C40.7455 59.0712 41.6174 58.8467 42.4087 58.4057C43.6323 57.724 44.5171 56.6065 44.9002 55.2591C44.9307 55.1515 44.9578 55.044 44.9813 54.9364L54.9533 52.1739C56.3935 51.682 58.2841 51.5047 59.1258 53.4433C59.9971 55.7193 57.7326 56.9713 57.144 57.2521Z" fill="#70908B"/>
<path d="M48.1877 17.4708C48.1704 17.3858 48.1452 17.3021 48.1106 17.2211C48.0774 17.1414 48.0376 17.0644 47.9884 16.9927C47.9406 16.9196 47.8848 16.8519 47.8238 16.7908C47.7627 16.7297 47.6949 16.6739 47.6219 16.6261C47.5502 16.5783 47.4731 16.5371 47.3934 16.5039C47.3124 16.4707 47.2287 16.4442 47.1451 16.4282C46.9737 16.3937 46.7971 16.3937 46.6258 16.4282C46.5408 16.4442 46.4571 16.4707 46.3774 16.5039C46.2964 16.5371 46.2194 16.5783 46.1477 16.6261C46.0746 16.6739 46.0069 16.7297 45.9458 16.7908C45.8847 16.8519 45.8289 16.9196 45.7811 16.9927C45.7333 17.0644 45.6921 17.1414 45.6589 17.2211C45.6257 17.3021 45.5991 17.3858 45.5832 17.4708C45.5659 17.5558 45.5566 17.6435 45.5566 17.7298C45.5566 17.8161 45.5659 17.9038 45.5832 17.9888C45.5991 18.0738 45.6257 18.1575 45.6589 18.2371C45.6921 18.3182 45.7333 18.3952 45.7811 18.4669C45.8289 18.54 45.8847 18.6077 45.9458 18.6688C46.0069 18.7299 46.0746 18.7857 46.1477 18.8335C46.2194 18.8813 46.2964 18.9225 46.3774 18.9557C46.4571 18.9889 46.5408 19.0141 46.6258 19.0314C46.7108 19.0486 46.7984 19.0579 46.8848 19.0579C46.9711 19.0579 47.0587 19.0486 47.1451 19.0314C47.2287 19.0141 47.3124 18.9889 47.3934 18.9557C47.4731 18.9225 47.5502 18.8813 47.6219 18.8335C47.6949 18.7857 47.7627 18.7299 47.8238 18.6688C47.8848 18.6077 47.9406 18.54 47.9884 18.4669C48.0376 18.3952 48.0774 18.3182 48.1106 18.2371C48.1452 18.1575 48.1704 18.0738 48.1877 17.9888C48.2049 17.9038 48.2129 17.8161 48.2129 17.7298C48.2129 17.6435 48.2049 17.5558 48.1877 17.4708Z" fill="#70908B"/>
<path d="M67.1719 4.50099H59.2752C58.5417 4.50099 57.9471 5.09559 57.9471 5.82911V6.97582H54.2439C53.5104 6.97582 52.9158 7.57042 52.9158 8.30394V8.68618C50.757 8.49772 50.047 8.08839 48.0645 6.94514C46.5398 6.06592 44.2354 4.73713 40.0854 2.87125C40.0662 2.86248 40.0468 2.85438 40.027 2.84668C38.6762 2.31516 35.1358 1.2694 31.3545 2.98308L26.0101 4.89664L21.5052 0.391904C20.9866 -0.126728 20.1456 -0.126728 19.627 0.391904L4.83726 15.1815C4.35887 15.66 4.26709 16.4897 4.83726 17.0599L30.1097 42.3324C30.5142 42.7369 31.4611 42.8592 31.9881 42.3324L45.4905 28.8301C45.8415 28.8604 46.2058 28.8767 46.5834 28.8767C50.0533 28.8767 53.1226 26.4965 54.8785 23.9021H67.1719C67.9054 23.9021 68.5 23.3075 68.5 22.574V5.82911C68.5 5.09559 67.9054 4.50099 67.1719 4.50099ZM20.566 3.20926L23.593 6.23632C22.6932 6.7928 21.6529 7.09057 20.566 7.09057C19.4789 7.09057 18.4387 6.79293 17.5389 6.23632L20.566 3.20926ZM10.6818 19.1478L7.65474 16.1206L10.6818 13.0936C11.2383 13.9934 11.5361 15.0337 11.5361 16.1206C11.5361 17.2076 11.2384 18.2479 10.6818 19.1478ZM31.049 39.5149L28.0225 36.4883C29.8703 35.348 32.2274 35.348 34.0754 36.4883L31.049 39.5149ZM35.989 34.575C33.0541 32.4461 29.0439 32.4461 26.109 34.575L12.5952 21.0611C13.6324 19.6347 14.1923 17.9213 14.1923 16.1206C14.1923 14.3198 13.6325 12.6065 12.5952 11.1801L15.6256 8.14988C17.052 9.18701 18.7653 9.74695 20.5661 9.74695C22.3669 9.74695 24.0802 9.18701 25.5066 8.14988L28.3792 11.0225C27.7594 11.114 27.1549 11.3183 26.5913 11.6324C25.6393 12.1628 24.8923 12.9572 24.4272 13.9182C22.9291 14.1956 21.5421 14.9209 20.4541 16.0088C17.5024 18.9607 17.5024 23.7636 20.4543 26.7155C21.9301 28.1913 23.8688 28.9293 25.8076 28.9293C27.7462 28.9293 29.685 28.1914 31.161 26.7155C32.1212 25.7552 32.7939 24.5751 33.1308 23.2889L37.6151 24.8108C37.1103 27.1494 37.6273 29.6096 39.022 31.542L35.989 34.575ZM27.9142 21.5179C27.9259 21.5221 27.9376 21.5264 27.9494 21.5303L30.6051 22.4317C30.4046 23.3369 29.9508 24.1691 29.2827 24.8372C27.3665 26.7532 24.2486 26.7535 22.3326 24.8372C20.4164 22.9212 20.4164 19.8034 22.3326 17.8872C22.7948 17.4247 23.3403 17.0633 23.9346 16.8183C24.1798 18.8586 25.6488 20.6772 27.9142 21.5179ZM40.9357 29.6282C40.423 28.7928 40.133 27.8393 40.0872 26.8662C40.7233 27.3261 41.5008 27.7768 42.4294 28.1344L40.9357 29.6282ZM52.9156 22.0445C51.6568 24.1081 49.2155 26.2202 46.5834 26.2202C46.0909 26.2202 45.6294 26.1852 45.1979 26.1227C45.1962 26.1225 45.1945 26.1222 45.1927 26.1219C42.3245 25.7053 40.7816 24.0752 40.2731 23.4297C40.246 23.3898 40.1306 23.2388 40.1134 23.2137C39.9587 22.9372 39.7051 22.7149 39.3815 22.6051L28.8219 19.0211C27.1367 18.3887 26.246 16.9457 26.6542 15.5065C26.6545 15.5056 26.6548 15.5046 26.655 15.5037C26.6554 15.5026 26.6557 15.5014 26.656 15.5004C26.8457 14.8377 27.2816 14.2879 27.8841 13.9523C28.4825 13.6188 29.1743 13.5361 29.8342 13.719L41.7332 17.4897C42.4326 17.7116 43.179 17.324 43.4006 16.6248C43.6221 15.9255 43.2349 15.1791 42.5357 14.9574L33.0721 11.9585L32.9895 11.8759C32.9887 11.8751 32.9879 11.8742 32.987 11.8734L28.0875 6.97396L32.2988 5.46601C32.313 5.46083 32.3305 5.45432 32.3446 5.44861C32.3482 5.44715 32.3551 5.44449 32.3585 5.44303C32.3766 5.43572 32.3944 5.42802 32.4121 5.41992C35.259 4.11145 37.9652 4.89465 39.026 5.30716C43.0347 7.11089 45.1743 8.34458 46.7375 9.24598C48.9108 10.4993 49.958 11.1032 52.9156 11.3475V22.0445ZM57.9471 21.2456H55.572V9.63207H57.9471V21.2456ZM65.8437 21.2456H60.6034V7.15724H65.8437V21.2456Z" fill="#70908B"/>
</g>
<defs>
<clipPath id="clip0_1_33">
<rect width="68" height="68" fill="white" transform="translate(0.5)"/>
</clipPath>
</defs>
</svg>
