<svg width="69" height="68" viewBox="0 0 69 68" fill="none" xmlns="http://www.w3.org/2000/svg">
<path d="M67.6585 14.7947L41.2961 0.318823C40.9 0.101408 40.4197 0.101408 40.0236 0.318823L30.0871 5.77484C29.8774 5.8301 29.6817 5.93545 29.5196 6.08676L13.6617 14.7947C13.2388 15.0266 12.9759 15.4707 12.9759 15.9536V33.4614C10.3008 34.298 7.84936 35.7734 5.81104 37.8123C0.498067 43.1247 -0.856513 51.2274 2.44034 57.9745C2.76052 58.6303 3.5522 58.9025 4.20806 58.5818C4.86443 58.2611 5.13607 57.4694 4.81589 56.8136C2.0148 51.0807 3.16591 44.1963 7.68049 39.6817C10.5038 36.8584 14.2572 35.3035 18.2496 35.3035C22.2421 35.3035 25.9955 36.8584 28.8188 39.6817C31.6415 42.5045 33.1965 46.2579 33.1965 50.2503C33.1965 54.2428 31.6415 57.9962 28.8182 60.8195C24.3037 65.334 17.4192 66.4852 11.6864 63.6841C11.0305 63.3634 10.2389 63.6355 9.91868 64.2914C9.59798 64.9478 9.86962 65.7394 10.526 66.0596C12.9837 67.2608 15.6205 67.8444 18.2383 67.8444C22.805 67.8439 27.3108 66.0663 30.6882 62.6889C32.237 61.1402 33.4609 59.3533 34.3269 57.4111L40.0236 60.539C40.2219 60.648 40.4409 60.7022 40.6599 60.7022C40.8788 60.7022 41.0983 60.648 41.2961 60.539L67.6585 46.0637C68.0815 45.8313 68.3443 45.3872 68.3443 44.9048V35.7171C68.3443 34.9869 67.7525 34.3951 67.0223 34.3951C66.292 34.3951 65.7002 34.9869 65.7002 35.7171V44.1224L41.986 57.1441V31.2093L49.8124 26.9116V33.7242C49.8124 34.1921 50.0593 34.6249 50.4616 34.8624C50.6692 34.9848 50.9016 35.0463 51.1345 35.0463C51.3534 35.0463 51.5729 34.9921 51.7717 34.8826L57.4209 31.7732C57.8433 31.5408 58.1052 31.0972 58.1052 30.6154V22.3577L65.7002 18.1876V25.1413C65.7002 25.8715 66.292 26.4633 67.0223 26.4633C67.7525 26.4633 68.3443 25.8715 68.3443 25.1413V15.9536C68.3443 15.4712 68.0815 15.0266 67.6585 14.7947ZM40.6599 2.98564L64.2754 15.9536L56.826 20.0442L33.2104 7.07623L40.6599 2.98564ZM40.6599 28.921L17.0443 15.9536L24.7669 11.7127L48.383 24.6801L40.6599 28.921ZM51.1293 23.1721L27.5138 10.2047L30.4636 8.58471L54.0796 21.5521L51.1293 23.1721ZM30.6882 37.8123C27.3655 34.4896 22.9481 32.6599 18.2496 32.6599C17.3609 32.6599 16.4829 32.7255 15.62 32.8541V18.1876L39.3425 31.2139V57.1487L35.225 54.8878C35.6304 53.3954 35.8401 51.8388 35.8401 50.2503C35.8401 45.5519 34.0104 41.1344 30.6882 37.8123ZM55.4616 29.834L52.4565 31.4881V25.4599L55.4616 23.8099V29.834Z" fill="#70908B"/>
</svg>
